<svg width="18" height="23" viewBox="0 0 18 23" fill="none" xmlns="http://www.w3.org/2000/svg">
<path fill-rule="evenodd" clip-rule="evenodd" d="M12.9107 22.3333H10.1005H7.28759C7.28759 22.3333 7.29532 20.6202 7.28759 19.4445C3.43876 20.2952 2.36492 17.2778 2.36492 17.2778C1.66168 15.8333 0.958444 15.1111 0.958444 15.1111C-0.448032 14.2531 0.958444 14.3889 0.958444 14.3889C2.36492 14.3889 3.06816 15.8333 3.06816 15.8333C4.30234 17.9863 6.49855 17.6396 7.28759 17.2778C7.28759 16.5556 7.5956 15.4636 7.99082 15.1111C4.91908 14.7558 2.36211 12.9445 2.36211 9.33334C2.36211 5.72223 3.06816 5.00001 3.7714 4.27778C3.62934 3.92173 3.04073 2.60584 3.7932 0.666672C3.7932 0.666672 5.17506 0.666672 6.58153 2.83334C7.27844 2.11762 9.39449 2.11112 10.0984 2.11112C10.801 2.11112 12.917 2.11762 13.6139 2.83334C15.0204 0.666672 16.4051 0.666672 16.4051 0.666672C17.1575 2.60584 16.5689 3.92173 16.4269 4.27778C17.1301 5.00001 17.8333 5.72223 17.8333 9.33334C17.8333 12.9445 15.2792 14.7558 12.2074 15.1111C12.6027 15.4636 12.9107 16.7072 12.9107 17.2778V22.3333Z" fill="white"/>
</svg>
