<svg width="18" height="18" viewBox="0 0 18 18" fill="none" xmlns="http://www.w3.org/2000/svg">
<path fill-rule="evenodd" clip-rule="evenodd" d="M5.33639 6.5988H0.685852V6.00751H0.685853C0.685853 11.7099 0.685852 15.2711 0.685852 15.2711C0.685852 17.8334 3.24812 17.8334 3.24812 17.8334H15.2711C15.2711 17.8334 17.8333 17.8334 17.8333 15.2711V6.5988V6.00751H12.8077C11.9986 4.93037 10.7105 4.23364 9.25959 4.23364C7.80872 4.23364 6.52058 4.93037 5.71151 6.00751H0.685853C0.685852 5.13604 0.685852 4.21457 0.685852 3.24815C0.685852 1.6308 1.70675 1.03435 2.45973 0.814392V4.23364H3.05102V0.698484C3.17402 0.685883 3.24812 0.685883 3.24812 0.685883H15.2711C15.2711 0.685883 17.8333 0.685883 17.8333 3.24815V6.5988H13.1828C13.5094 7.21662 13.6943 7.92088 13.6943 8.66833C13.6943 11.1175 11.7088 13.103 9.25959 13.103C6.81038 13.103 4.8249 11.1175 4.8249 8.66833C4.8249 7.92088 5.00981 7.21662 5.33639 6.5988ZM14.72 1.86847C14.1535 1.86847 13.6943 2.33041 13.6943 2.8942V3.7992C13.6943 4.36569 14.1562 4.82493 14.72 4.82493H15.625C16.1915 4.82493 16.6507 4.36298 16.6507 3.7992V2.8942C16.6507 2.3277 16.1888 1.86847 15.625 1.86847H14.72ZM4.8249 0.685883V4.23364H5.41619V0.685883H4.8249ZM3.64231 0.685883V4.23364H4.23361V0.685883H3.64231ZM9.25959 12.2161C11.219 12.2161 12.8073 10.6277 12.8073 8.66833C12.8073 6.70896 11.219 5.12057 9.25959 5.12057C7.30022 5.12057 5.71184 6.70896 5.71184 8.66833C5.71184 10.6277 7.30022 12.2161 9.25959 12.2161ZM9.25959 11.0335C10.5658 11.0335 11.6248 9.97457 11.6248 8.66833C11.6248 7.36208 10.5658 6.30316 9.25959 6.30316C7.95334 6.30316 6.89442 7.36208 6.89442 8.66833C6.89442 9.97457 7.95334 11.0335 9.25959 11.0335Z" fill="white"/>
</svg>
