<svg width="20" height="20" viewBox="0 0 20 20" fill="none" xmlns="http://www.w3.org/2000/svg">
<path d="M9.9998 2.73429C8.9848 1.54629 7.4998 0.800293 5.9498 0.800293C3.0518 0.800293 0.799805 3.28029 0.799805 6.39529C0.799805 8.30929 1.5918 10.0332 2.9498 11.8442C4.2958 13.6392 6.2148 15.5412 8.5098 17.8132L8.5538 17.8572L9.8598 19.1422L9.9998 19.2822L10.1398 19.1422L11.4458 17.8472L11.4658 17.8272C13.7708 15.5492 15.6998 13.6432 17.0508 11.8432C18.4088 10.0332 19.1998 8.30929 19.1998 6.39529C19.1998 3.28029 16.9478 0.800293 14.0498 0.800293C12.4988 0.800293 11.0148 1.54629 9.9998 2.73429ZM9.9998 16.0612C7.8768 13.9662 6.1288 12.2362 4.9058 10.6782C3.6728 9.10829 2.9998 7.74529 2.9998 6.39529C2.9998 4.52729 4.2758 3.16229 5.9498 3.16229C7.2478 3.16229 8.5248 4.07729 8.9748 5.34429L9.0218 5.47729H10.9878L11.0348 5.34329C11.4748 4.07729 12.7508 3.16229 14.0498 3.16229C15.7238 3.16229 16.9998 4.52729 16.9998 6.39529C16.9998 7.74529 16.3278 9.10829 15.0938 10.6782C13.8708 12.2362 12.1228 13.9662 9.9998 16.0612Z" fill="white"/>
</svg>
