<svg width="20" height="20" viewBox="0 0 20 20" fill="none" xmlns="http://www.w3.org/2000/svg">
<path d="M1.508 0.0578843C0.816 0.225884 0.242 0.795884 0.055 1.49889C0.015 1.64389 0 2.03389 0 2.97189C0 4.20189 0.004 4.25689 0.078 4.33189C0.176 4.42889 0.355 4.43189 0.473 4.33489L0.566 4.26089L0.586 2.93689C0.606 1.69089 0.609 1.60489 0.687 1.44089C1.043 0.698884 1.844 0.389884 2.57 0.717884C2.852 0.842884 3.164 1.15189 3.293 1.42889L3.379 1.61589L3.391 9.09289L3.398 16.5659L3.254 16.4409C3.043 16.2529 2.602 16.0579 2.277 16.0109C1.711 15.9249 1.094 16.1049 0.695 16.4709L0.585 16.5739V11.0039C0.585 7.03789 0.575 5.40189 0.543 5.31189C0.469 5.10089 0.234 5.04189 0.086 5.20189L0 5.29189V11.7959C0 17.0889 0.012 18.3309 0.055 18.4919C0.246 19.2059 0.81 19.7589 1.527 19.9369C1.742 19.9869 2.497 19.9949 7.141 19.9949H12.504L12.598 19.8979C12.715 19.7839 12.723 19.6479 12.621 19.5229C12.547 19.4329 12.527 19.4289 11.801 19.4089L11.055 19.3889L14.582 15.8629L18.113 12.3309L18.316 12.6909C18.636 13.2529 18.68 13.3939 18.703 13.8819C18.727 14.4759 18.68 14.6589 18.32 15.3619C18.152 15.6909 18 16.0299 17.988 16.1119C17.965 16.2489 17.793 16.4319 16.391 17.8349L14.824 19.4089H14.195C13.621 19.4089 13.562 19.4169 13.485 19.4879C13.368 19.6069 13.368 19.7989 13.485 19.9179C13.566 19.9949 13.605 19.9949 16.148 19.9949C18.578 19.9949 18.738 19.9879 18.891 19.9209C19.371 19.7019 19.398 19.1589 18.973 18.3549C18.863 18.1519 18.734 17.9049 18.683 17.8079C18.543 17.5309 18.465 17.1009 18.493 16.7219C18.523 16.3119 18.621 16.0149 18.887 15.5419C19.195 14.9879 19.266 14.7529 19.285 14.1669C19.312 13.4719 19.25 13.2179 18.879 12.5029C18.57 11.9049 18.477 11.6049 18.477 11.1869C18.477 10.7689 18.57 10.4599 18.867 9.89689C19.207 9.25289 19.297 8.93289 19.297 8.35889C19.297 7.79189 19.227 7.53389 18.887 6.83089C18.484 5.99889 18.41 5.61589 18.535 5.01489C18.594 4.73789 18.613 4.69489 18.973 4.01889C19.398 3.21389 19.371 2.67089 18.891 2.45189C18.742 2.38589 18.601 2.37789 17.106 2.37789C15.527 2.37789 15.48 2.38189 15.398 2.45589C15.285 2.56189 15.281 2.78389 15.391 2.87789C15.461 2.93689 15.594 2.94789 16.406 2.96389L17.344 2.98389L10.664 9.66389L3.984 16.3429V12.5149L8.762 7.73789L13.535 2.96389H13.969C14.461 2.96389 14.551 2.92489 14.594 2.70189C14.614 2.60089 14.598 2.55789 14.52 2.47989L14.418 2.37789H3.984V2.05389C3.984 1.46389 3.789 0.979884 3.394 0.584884C2.901 0.0908844 2.186 -0.109116 1.508 0.0578843ZM8.047 2.97589C8.047 2.97989 7.133 3.89789 6.016 5.01489L3.984 7.04589V2.96389H6.016C7.133 2.96389 8.046 2.96789 8.046 2.97589H8.047ZM8.359 7.31989L4.004 11.6749L3.992 9.79189L3.984 7.90589L6.454 5.43589L8.926 2.96389H12.715L8.359 7.32089V7.31989ZM18.684 3.01889C18.727 3.12389 18.602 3.45589 18.316 4.01889C18.156 4.33089 18 4.68289 17.976 4.79989C17.847 5.37389 17.881 5.97189 18.074 6.52689L18.176 6.79989L11.871 13.1049L5.566 19.4089H3.43L3.492 19.3239C3.902 18.7639 3.953 18.6009 3.98 17.7959L4.004 17.1439L11.094 10.0539L18.184 2.96389H18.422C18.594 2.96389 18.668 2.97989 18.684 3.01889ZM18.598 7.56189C18.664 7.73389 18.688 7.89389 18.703 8.22189C18.723 8.76889 18.676 9.00289 18.453 9.41289C17.969 10.3229 17.922 10.4829 17.914 11.1979L17.906 11.7179L14.063 15.5619L10.215 19.4089H6.387L12.422 13.3739C15.742 10.0539 18.469 7.33889 18.484 7.33889C18.5 7.33889 18.551 7.44089 18.598 7.56189ZM2.512 16.6749C2.797 16.7849 3.078 17.0379 3.246 17.3469C3.371 17.5809 3.379 17.6129 3.379 17.9839C3.379 18.4559 3.309 18.6359 3.008 18.9559C2.398 19.6099 1.34 19.5319 0.832 18.7959C0.637 18.5229 0.574 18.2839 0.594 17.9089C0.614 17.5299 0.707 17.2999 0.941 17.0459C1.355 16.5959 1.934 16.4599 2.511 16.6759L2.512 16.6749ZM18.027 17.7449C18.062 17.8549 18.207 18.1589 18.347 18.4249C18.597 18.9019 18.727 19.2489 18.684 19.3549C18.668 19.4019 18.418 19.4089 17.172 19.4089H15.684L16.797 18.2959L17.91 17.1829L17.937 17.3669C17.953 17.4639 17.992 17.6359 18.027 17.7449Z" fill="white"/>
</svg>
