<svg width="20" height="20" viewBox="0 0 20 20" fill="none" xmlns="http://www.w3.org/2000/svg">
<g clip-path="url(#clip0_3_67)">
<path d="M18.1759 7.26998C18.5399 7.26998 18.8119 7.45298 18.9939 7.81698C19.1739 8.08998 19.0829 8.45398 18.9029 8.72598L9.81892 19.636C9.63692 19.909 9.36492 20 9.09192 20C9.00192 20 8.81992 20 8.72892 19.909C8.36492 19.818 8.09192 19.365 8.18392 19L9.00191 12.725H1.82492C1.49192 12.728 1.18292 12.555 1.00692 12.27C0.825914 11.908 0.915914 11.545 1.09892 11.27L10.1829 0.362975C10.4299 0.0159751 10.8919 -0.0980249 11.2729 0.0899751C11.6349 0.180975 11.9079 0.634975 11.8169 0.998975L10.9999 7.27198H18.1759V7.26998ZM10.9089 11.907L10.3639 16.089L16.1769 9.08798H9.90991C9.67191 9.07798 9.44492 8.98198 9.27392 8.81698C9.15992 8.58998 9.09792 8.34198 9.09192 8.08798L9.54692 3.90598L3.73292 10.906H9.99992C10.2729 10.906 10.5449 10.997 10.7279 11.179C10.8189 11.363 10.9089 11.634 10.9089 11.907Z" fill="white"/>
</g>
<defs>
<clipPath id="clip0_3_67">
<rect width="20" height="20" fill="white"/>
</clipPath>
</defs>
</svg>
