<svg width="20" height="20" viewBox="0 0 20 20" fill="none" xmlns="http://www.w3.org/2000/svg">
<path d="M5.30469 17.3984H6.91406C7.03125 17.3984 7.10156 17.4297 7.1875 17.5156L8.32812 18.6484C9.44531 19.7656 10.5469 19.7656 11.6641 18.6484L12.8047 17.5156C12.8906 17.4297 12.9609 17.3984 13.0781 17.3984H14.6875C16.2656 17.3984 17.0469 16.6172 17.0469 15.0391V13.4297C17.0469 13.3203 17.0781 13.2344 17.1641 13.1563L18.2969 12.0156C19.4141 10.8984 19.4141 9.79689 18.2969 8.67971L17.1641 7.54689C17.0703 7.45314 17.0469 7.38283 17.0469 7.27346V5.66408C17.0469 4.07814 16.2578 3.29689 14.6875 3.29689H13.0781C12.9609 3.29689 12.8828 3.26564 12.8047 3.18752L11.6641 2.05471C10.5391 0.921898 9.46094 0.937523 8.32812 2.06252L7.1875 3.18752C7.10938 3.26564 7.03125 3.29689 6.91406 3.29689H5.30469C3.72656 3.29689 2.94531 4.07033 2.94531 5.66408V7.27346C2.94531 7.38283 2.91406 7.46096 2.83594 7.54689L1.69531 8.67971C0.578126 9.79689 0.578126 10.8984 1.69531 12.0156L2.83594 13.1563C2.91406 13.2344 2.94531 13.3203 2.94531 13.4297V15.0391C2.94531 16.6172 3.73438 17.3984 5.30469 17.3984ZM5.79688 15.3438C5.13281 15.3438 5.01562 15.2266 5.00781 14.5547V12.7344C5.00781 12.5156 4.95312 12.3594 4.79688 12.2109L3.5 10.9141C3.02344 10.4375 3.02344 10.2813 3.5 9.80471L4.79688 8.50783C4.95312 8.35158 5.00781 8.19533 5.01562 7.98439V6.16408C5.01562 5.48439 5.125 5.37502 5.79688 5.37502L7.625 5.36721C7.83594 5.36721 8 5.30471 8.14844 5.15627L9.44531 3.85939C9.92188 3.39064 10.0703 3.38283 10.5469 3.85939L11.8438 5.15627C11.9922 5.30471 12.1562 5.36721 12.375 5.36721L14.1953 5.37502C14.8594 5.37502 14.9766 5.49221 14.9766 6.16408V7.98439C14.9844 8.19533 15.0391 8.35158 15.1953 8.50783L16.4922 9.80471C16.9688 10.2813 16.9688 10.4375 16.4922 10.9141L15.1953 12.2109C15.0391 12.3594 14.9844 12.5156 14.9844 12.7344L14.9766 14.5547C14.9766 15.2266 14.8594 15.3438 14.1953 15.3438L12.375 15.3516C12.1562 15.3516 12.0078 15.3906 11.8438 15.5547L10.5469 16.8516C10.0781 17.3281 9.92188 17.3281 9.44531 16.8516L8.14844 15.5547C7.98438 15.3906 7.83594 15.3516 7.625 15.3516L5.79688 15.3438Z" fill="white"/>
</svg>
