<svg width="20" height="20" viewBox="0 0 20 20" fill="none" xmlns="http://www.w3.org/2000/svg">
<path d="M9.659 5.00288C9.434 5.01588 9.249 5.03188 9.058 5.05388C7.473 5.23988 5.975 5.91488 4.765 6.98988C4.618 7.11988 4.294 7.44288 4.156 7.59588C3.823 7.96588 3.527 8.36388 3.274 8.77788L3.183 8.92788V8.30588C3.183 7.89288 3.179 7.66588 3.172 7.62988C3.124 7.39688 2.904 7.21888 2.667 7.21888C2.429 7.21888 2.21 7.39688 2.161 7.62988C2.153 7.66888 2.15 8.35388 2.15 10.0149V12.3449H1.307C0.733 12.3449 0.449 12.3499 0.411 12.3569C0.178 12.4049 0 12.6239 0 12.8619C0 13.0999 0.178 13.3189 0.411 13.3679C0.449 13.3749 0.733 13.3789 1.307 13.3789H2.15V13.9989C2.15 14.4119 2.154 14.6369 2.161 14.6729C2.21 14.9069 2.429 15.0839 2.667 15.0839C2.904 15.0839 3.124 14.9069 3.172 14.6729C3.179 14.6369 3.183 14.4119 3.183 13.9989V13.3789H16.827V13.9989C16.827 14.4119 16.831 14.6369 16.838 14.6729C16.887 14.9069 17.106 15.0839 17.344 15.0839C17.581 15.0839 17.801 14.9069 17.849 14.6729C17.856 14.6369 17.86 14.4119 17.86 13.9989V13.3789H18.698C19.268 13.3789 19.551 13.3749 19.589 13.3679C19.822 13.3189 20 13.0999 20 12.8619C20 12.6239 19.822 12.4049 19.589 12.3569C19.551 12.3499 19.268 12.3449 18.698 12.3449H17.86V10.0149C17.86 8.35388 17.857 7.66888 17.849 7.62988C17.809 7.43688 17.642 7.26988 17.449 7.22988C17.198 7.17688 16.949 7.31888 16.855 7.56688C16.832 7.62588 16.832 7.63688 16.827 8.28288L16.822 8.93888L16.745 8.81088C16.306 8.07588 15.696 7.36788 15.014 6.79988C14.454 6.33488 13.774 5.91988 13.106 5.63388C12.305 5.29188 11.534 5.10088 10.636 5.02188C10.467 5.00688 9.806 4.99288 9.659 5.00288ZM9.488 9.19788V12.3449H6.491V6.99588L6.623 6.91988C7.337 6.51488 8.154 6.23188 8.961 6.10788C9.104 6.08588 9.389 6.05288 9.445 6.05188L9.488 6.05088V9.19788ZM10.879 6.08688C11.564 6.17388 12.233 6.36588 12.872 6.66188C13.039 6.73888 13.318 6.88388 13.455 6.96488L13.519 7.00288V12.3449H10.522V6.04888L10.603 6.05588C10.646 6.05888 10.771 6.07388 10.879 6.08688ZM5.457 10.0559V12.3449H3.183V12.3219C3.183 12.2099 3.251 11.7439 3.303 11.4829C3.537 10.3439 4.047 9.31188 4.825 8.39888C4.953 8.24888 5.427 7.76688 5.447 7.76688C5.454 7.76688 5.457 8.58388 5.457 10.0559ZM14.947 8.14888C15.992 9.24988 16.625 10.6079 16.796 12.1129C16.807 12.2149 16.817 12.3089 16.817 12.3219V12.3449H14.553V7.76488L14.679 7.88088C14.747 7.94588 14.868 8.06588 14.947 8.14888Z" fill="white"/>
</svg>
