<svg width="20" height="20" viewBox="0 0 20 20" fill="none" xmlns="http://www.w3.org/2000/svg">
<path d="M18.8888 5.556H15.7668C15.2668 4.689 14.5778 3.945 13.7438 3.378L15.5548 1.567L13.9888 0L11.5778 2.412C11.0668 2.289 10.5448 2.222 9.99984 2.222C9.45584 2.222 8.93284 2.289 8.43384 2.412L6.01084 0L4.44384 1.567L6.24384 3.378C5.42184 3.945 4.73284 4.689 4.23384 5.556H1.11084V7.778H3.43384C3.37784 8.145 3.33284 8.511 3.33284 8.889V10H1.11084V12.222H3.33284V13.333C3.33284 13.711 3.37784 14.078 3.43384 14.444H1.11084V16.667H4.23384C5.38884 18.655 7.53284 20 9.99984 20C12.4668 20 14.6108 18.655 15.7668 16.667H18.8888V14.444H16.5668C16.6218 14.078 16.6668 13.711 16.6668 13.333V12.222H18.8888V10H16.6668V8.889C16.6668 8.511 16.6218 8.145 16.5668 7.778H18.8888V5.556ZM12.2218 14.444H7.77784V12.222H12.2218V14.444ZM12.2218 10H7.77784V7.778H12.2218V10Z" fill="white"/>
</svg>
