<svg width="20" height="20" viewBox="0 0 20 20" fill="none" xmlns="http://www.w3.org/2000/svg">
<path d="M6.35999 19.1801C6.84399 19.1801 7.21899 18.9601 7.81199 18.4381L10.477 16.0941H14.937C17.305 16.0941 18.687 14.6871 18.687 12.3521V6.20312C18.687 3.86713 17.305 2.45312 14.937 2.45312H5.06299C2.69499 2.45312 1.31299 3.85912 1.31299 6.20312V12.3521C1.31299 14.6951 2.75799 16.0941 4.96099 16.0941H5.23399V17.9221C5.23399 18.6951 5.65599 19.1801 6.35899 19.1801H6.35999ZM6.78999 17.1881V14.9921C6.78999 14.4921 6.56999 14.3121 6.10999 14.3121H5.14799C3.76599 14.3121 3.10199 13.6091 3.10199 12.2581V6.28912C3.10199 4.93813 3.76599 4.24213 5.14799 4.24213H14.852C16.227 4.24213 16.898 4.93813 16.898 6.28912V12.2581C16.898 13.6091 16.227 14.3131 14.852 14.3131H10.359C9.85199 14.3131 9.61699 14.3981 9.24999 14.7661L6.78999 17.1871V17.1881ZM6.06199 7.31313H13.867C14.0035 7.31209 14.1342 7.25738 14.2307 7.16083C14.3272 7.06429 14.3819 6.93365 14.383 6.79712C14.3814 6.6615 14.3263 6.53199 14.2296 6.43684C14.133 6.34168 14.0026 6.28859 13.867 6.28912H6.06199C5.78899 6.28912 5.56199 6.51612 5.56199 6.79712C5.56199 7.07812 5.78899 7.31313 6.06199 7.31313ZM6.06199 9.75012H13.867C14.0046 9.74854 14.1359 9.69272 14.2326 9.59478C14.3292 9.49684 14.3833 9.36472 14.383 9.22713C14.3801 9.09192 14.3246 8.96315 14.2282 8.86827C14.1318 8.77339 14.0022 8.71987 13.867 8.71912H6.06199C5.92881 8.72173 5.80195 8.77634 5.70851 8.87127C5.61507 8.9662 5.56248 9.09393 5.56199 9.22713C5.56199 9.51613 5.78899 9.75012 6.06199 9.75012ZM6.06199 12.1881H11.156C11.446 12.1881 11.672 11.9531 11.672 11.6721C11.6728 11.6041 11.66 11.5367 11.6343 11.4737C11.6087 11.4107 11.5707 11.3535 11.5226 11.3054C11.4746 11.2574 11.4174 11.2194 11.3544 11.1937C11.2914 11.1681 11.224 11.1553 11.156 11.1561H6.06199C5.78899 11.1561 5.56199 11.3911 5.56199 11.6721C5.56199 11.9531 5.78899 12.1871 6.06199 12.1871V12.1881Z" fill="white"/>
</svg>
