<svg width="20" height="20" viewBox="0 0 20 20" fill="none" xmlns="http://www.w3.org/2000/svg">
<path d="M13.731 10.015C15.468 10.015 16.872 8.49699 16.872 6.61799C16.872 4.77299 15.461 3.29199 13.731 3.29199C12.007 3.29199 10.588 4.78799 10.588 6.62399C10.595 8.49699 11.993 10.015 13.731 10.015ZM5.468 10.178C6.979 10.178 8.206 8.83699 8.206 7.18499C8.206 5.57499 6.979 4.26299 5.467 4.26299C3.965 4.26299 2.723 5.58899 2.731 7.19199C2.731 8.84399 3.958 10.178 5.468 10.178ZM13.731 8.64599C12.794 8.64599 12.007 7.76699 12.007 6.62399C12 5.51799 12.794 4.65999 13.73 4.65999C14.674 4.65999 15.454 5.51099 15.454 6.61799C15.454 7.75199 14.674 8.64599 13.731 8.64599ZM5.468 8.82999C4.716 8.82999 4.078 8.10699 4.078 7.19199C4.071 6.31999 4.716 5.61099 5.468 5.61099C6.227 5.61099 6.866 6.30599 6.866 7.18499C6.866 8.10799 6.227 8.82999 5.468 8.82999ZM1.596 16.709H7.063C6.638 16.454 6.376 15.872 6.426 15.362H1.617C1.49 15.362 1.44 15.306 1.44 15.192C1.44 13.674 3.27 12.2 5.461 12.2C6.177 12.2 6.972 12.383 7.526 12.681C7.774 12.284 8.092 11.951 8.539 11.667C7.66 11.149 6.518 10.858 5.461 10.858C2.44 10.858 0 12.993 0 15.348C0 16.24 0.532 16.709 1.596 16.709ZM9.333 16.702H18.12C19.383 16.702 20 16.291 20 15.412C20 13.391 17.497 10.865 13.731 10.865C9.965 10.865 7.454 13.391 7.454 15.412C7.454 16.291 8.071 16.702 9.333 16.702ZM9.205 15.333C9.05 15.333 8.993 15.284 8.993 15.164C8.993 14.142 10.71 12.235 13.731 12.235C16.744 12.235 18.461 14.142 18.461 15.164C18.461 15.284 18.404 15.334 18.255 15.334H9.205V15.333Z" fill="white"/>
</svg>
