<svg width="12" height="12" viewBox="0 0 12 12" fill="none" xmlns="http://www.w3.org/2000/svg">
<path d="M11.109 12C10.992 12.0001 10.8761 11.9771 10.768 11.9323C10.6599 11.8876 10.5616 11.822 10.4788 11.7392L0.271999 1.53182C0.186903 1.44963 0.119028 1.35132 0.0723335 1.24262C0.0256392 1.13391 0.00106164 1.017 3.36403e-05 0.898702C-0.000994363 0.780401 0.021548 0.66308 0.0663462 0.553584C0.111144 0.444089 0.177301 0.344611 0.260955 0.260956C0.34461 0.177302 0.444088 0.111145 0.553583 0.0663472C0.663079 0.0215489 0.780399 -0.000994365 0.8987 3.36391e-05C1.017 0.00106164 1.13391 0.0256401 1.24261 0.0723344C1.35131 0.119029 1.44963 0.186904 1.53181 0.272L11.7392 10.4794C11.8637 10.6041 11.9485 10.7628 11.9828 10.9356C12.017 11.1084 11.9994 11.2874 11.9319 11.4502C11.8645 11.6129 11.7503 11.752 11.6038 11.8498C11.4574 11.9477 11.2852 12 11.109 12Z" fill="white"/>
<path d="M0.901407 11.9999C0.725306 11.9997 0.553199 11.9474 0.406826 11.8495C0.260452 11.7516 0.146377 11.6125 0.0790069 11.4498C0.0116369 11.2871 -0.0060054 11.108 0.0283077 10.9353C0.0626208 10.7626 0.14735 10.6039 0.271795 10.4793L10.4786 0.271869C10.6457 0.104728 10.8723 0.0107979 11.1086 0.0107422C11.3449 0.0106865 11.5716 0.10451 11.7387 0.271572C11.9059 0.438634 11.9998 0.66525 11.9999 0.901567C11.9999 1.13788 11.9061 1.36454 11.739 1.53169L1.53161 11.7391C1.44884 11.8218 1.35058 11.8874 1.24245 11.9322C1.13432 11.9769 1.01843 11.9999 0.901407 11.9999Z" fill="white"/>
</svg>
