<svg width="25" height="21" viewBox="0 0 25 21" fill="none" xmlns="http://www.w3.org/2000/svg">
<path d="M2.9645 4.6252C2.99561 4.31832 2.87861 4.0149 2.64941 3.8084L0.315088 0.996393V0.576324H7.56299L13.1653 12.8628L18.0907 0.576324L25 0.576373V0.996393L23.0042 2.90992C22.8321 3.04102 22.7468 3.2567 22.7825 3.47007V17.53C22.7468 17.7434 22.8321 17.959 23.0042 18.0901L24.9533 20.0037V20.4237H15.1495V20.0037L17.1685 18.0434C17.367 17.8451 17.367 17.7867 17.367 17.4834V6.11871L11.7531 20.377H10.9945L4.4584 6.11871V15.6748C4.404 16.0766 4.5374 16.4811 4.82021 16.7716L7.44639 19.9569V20.377H0V19.9569L2.62617 16.7716C2.90688 16.4806 3.03247 16.0733 2.9645 15.6748V4.6252Z" fill="white"/>
</svg>
