<svg width="25" height="17" viewBox="0 0 25 17" fill="none" xmlns="http://www.w3.org/2000/svg">
<path d="M15.8216 0.171624H15.7734L15.4488 0.501722C18.7801 1.49202 20.3919 3.03853 20.3919 3.03853C18.2449 1.936 16.3101 1.38473 14.3753 1.16192C12.9773 0.939102 11.5792 1.05629 10.3981 1.16192H10.0767C9.32138 1.16192 7.7144 1.49202 5.56104 2.37503C4.81059 2.71008 4.37992 2.92959 4.37992 2.92959C4.37992 2.92959 5.99011 1.2758 9.53832 0.392789L9.32137 0.169973C9.32137 0.169973 6.63451 0.0643418 3.73391 2.2661C3.73391 2.2661 0.833313 7.45524 0.833313 13.8525C0.833313 13.8525 2.44029 16.7244 6.84824 16.8333C6.84824 16.8333 7.49103 15.9536 8.14185 15.1795C5.66711 14.4071 4.70292 12.8623 4.70292 12.8623C4.70292 12.8623 4.91825 12.9712 5.24126 13.1923H5.33767C5.38588 13.1923 5.40838 13.2171 5.43409 13.2419V13.2518C5.4598 13.2782 5.4823 13.3013 5.53051 13.3013C6.06081 13.5257 6.59112 13.7469 7.025 13.9615C7.77385 14.2949 8.73643 14.6266 9.91756 14.8461C11.4121 15.069 13.1251 15.1762 15.076 14.8461C16.0402 14.6233 17.0043 14.4055 17.9685 13.9631C18.5952 13.633 19.3666 13.3029 20.2135 12.7467C20.2135 12.7467 19.2493 14.2916 16.6701 15.064C17.2004 15.8331 17.9476 16.7145 17.9476 16.7145C22.3572 16.6155 24.0702 13.7436 24.1666 13.8657C24.1666 7.47835 21.25 2.2793 21.25 2.2793C18.6226 0.275605 16.1639 0.199682 15.73 0.199682L15.82 0.166672L15.8216 0.171624ZM16.0916 7.45524C17.2213 7.45524 18.1324 8.44554 18.1324 9.65865C18.1324 10.88 17.2165 11.8703 16.0916 11.8703C14.9667 11.8703 14.0507 10.88 14.0507 9.66855C14.0539 8.44719 14.9715 7.46019 16.0916 7.46019V7.45524ZM8.79107 7.45524C9.91596 7.45524 10.8255 8.44554 10.8255 9.65865C10.8255 10.88 9.90953 11.8703 8.78464 11.8703C7.65976 11.8703 6.74378 10.88 6.74378 9.66855C6.74378 8.44719 7.65976 7.46019 8.78464 7.46019L8.79107 7.45524Z" fill="#FFB805"/>
</svg>
