<svg width="23" height="19" viewBox="0 0 23 19" fill="none" xmlns="http://www.w3.org/2000/svg">
<path d="M22.2996 2.64323C21.501 2.99821 20.6416 3.23766 19.7398 3.34482C20.6605 2.7936 21.3665 1.92048 21.6995 0.878904C20.8382 1.38999 19.8849 1.76085 18.8693 1.96105C18.0566 1.09498 16.8982 0.553467 15.6163 0.553467C13.1552 0.553467 11.1598 2.54886 11.1598 5.01037C11.1598 5.35918 11.1991 5.69916 11.2753 6.02592C7.57118 5.83983 4.28682 4.06581 2.08858 1.36926C1.70494 2.02719 1.48533 2.79272 1.48533 3.61028C1.48533 5.15633 2.27203 6.52069 3.46794 7.31973C2.73769 7.29636 2.05022 7.09572 1.44917 6.76191C1.44873 6.78043 1.44873 6.79939 1.44873 6.81835C1.44873 8.97735 2.98508 10.7783 5.02413 11.1884C4.65019 11.2898 4.2564 11.3445 3.84982 11.3445C3.56231 11.3445 3.28317 11.3167 3.01109 11.2642C3.57862 13.0347 5.22433 14.3237 7.17431 14.3594C5.64899 15.5549 3.72767 16.2675 1.63923 16.2675C1.27984 16.2675 0.924858 16.2463 0.57605 16.2049C2.54896 17.47 4.8914 18.2073 7.40802 18.2073C15.6061 18.2073 20.0886 11.4164 20.0886 5.52674C20.0886 5.3336 20.0846 5.14089 20.0762 4.94951C20.9467 4.32245 21.7026 3.53708 22.2996 2.64323Z" fill="white"/>
</svg>
